:version 1.10
:name ASF
:units
  mass 1
  length 1
  angle deg
:documentation
  ASF file generated by Kaydara
:root
  axis xyz
  order  tx ty tz rx ry rz
  position 0 0 0
  orientation 0 0 0
:bonedata
  begin
    id 1
    name RightUpLegDummy
    direction -0.65628 -0.754516 0.00165102
    length 4.76918
    axis 0 0 0 xyz
  end
  begin
    id 2
    name RightUpLeg
    direction -0.145584 -0.923362 0.355256
    length 17.9961
    axis -24.7611 -13.1006 1.78531 xyz
    dof rx ry rz
  end
  begin
    id 3
    name RightLeg
    direction 0.263379 0.172355 -0.949171
    length 13.3386
    axis 89.6202 -21.1929 12.3855 xyz
    dof rx ry rz
  end
  begin
    id 4
    name RightFoot
    direction 0.224283 -0.968777 -0.105675
    length 5.86697
    axis 56.995 -39.6905 17.3365 xyz
    dof rx ry rz
  end
  begin
    id 5
    name RightToes
    direction -0.0806345 -0.9037 0.420506
    length 4.75197
    axis 146.825 -39.7828 17.6019 xyz
    dof rx ry rz
  end
  begin
    id 6
    name SpineDummy
    direction -3.39852e-014 1 9.33296e-014
    length 8.13779
    axis 0 0 0 xyz
  end
  begin
    id 7
    name Spine
    direction -0.156609 0.733703 0.661176
    length 7.14978
    axis 41.2365 5.68757 17.0844 xyz
    dof rx ry rz
  end
  begin
    id 8
    name Spine1
    direction 0 0 0
    length 0
    axis 42.8809 47.8308 -3.36039 xyz
    dof rx ry rz
  end
  begin
    id 9
    name HEadDummy
    direction 0.546431 0.701947 0.456819
    length 3.55512
    axis 42.8809 47.8308 -3.36039 xyz
  end
  begin
    id 10
    name HEad
    direction 0.23444 0.828559 0.508457
    length 7.35827
    axis 51.1864 49.2662 27.4903 xyz
    dof rx ry rz
  end
  begin
    id 11
    name LeftShoulder1Dummy
    direction 0.431183 0.475873 -0.766568
    length 2.49352
    axis 42.8809 47.8308 -3.36039 xyz
  end
  begin
    id 12
    name LeftShoulder1
    direction 0.268187 -0.383402 -0.883786
    length 4.48604
    axis -119.517 0.106469 35.1736 xyz
    dof rx ry rz
  end
  begin
    id 13
    name LeftArm
    direction 0.380567 -0.703221 -0.600541
    length 10.1142
    axis -5.41825 36.2925 7.8293 xyz
    dof rx ry rz
  end
  begin
    id 14
    name LeftForeArm
    direction 0.541071 -0.732356 -0.413396
    length 9.39839
    axis 4.65387 33.7604 7.81644 xyz
    dof rx ry rz
  end
  begin
    id 15
    name LeftHand
    direction 0.847511 -0.389379 -0.360707
    length 3.66142
    axis 7.65593 21.1436 -24.6758 xyz
    dof rx ry rz
  end
  begin
    id 16
    name RightShoulderDummy
    direction -0.692546 0.541855 0.476208
    length 2.49352
    axis 42.8809 47.8308 -3.36039 xyz
  end
  begin
    id 17
    name RightShoulder
    direction -0.870808 -0.316653 0.376065
    length 4.48602
    axis 141.571 51.133 -100.254 xyz
    dof rx ry rz
  end
  begin
    id 18
    name RightArm
    direction 0.366897 -0.87275 0.322015
    length 10.1142
    axis 92.3258 71.2036 138.917 xyz
    dof rx ry rz
  end
  begin
    id 19
    name RightForeArm
    direction 0.702487 -0.694568 0.155197
    length 9.39835
    axis 153.863 41.5092 -176.604 xyz
    dof rx ry rz
  end
  begin
    id 20
    name RightHand
    direction 0.79502 -0.601276 0.0800636
    length 3.66142
    axis 154.247 4.59222 142.9 xyz
    dof rx ry rz
  end
  begin
    id 21
    name LeftUpLegDummy
    direction 0.65628 -0.754516 0.00165102
    length 4.76919
    axis 0 0 0 xyz
  end
  begin
    id 22
    name LeftUpLeg
    direction -0.1277 -0.689368 0.713067
    length 17.9961
    axis -48.3385 -17.8675 0.791927 xyz
    dof rx ry rz
  end
  begin
    id 23
    name LeftLeg
    direction 0.109849 -0.991246 -0.0732378
    length 13.3386
    axis -2.05791 -7.30784 1.72042 xyz
    dof rx ry rz
  end
  begin
    id 24
    name LeftFoot
    direction 0.0448355 -0.272614 0.961078
    length 5.86697
    axis -18.7733 -7.89606 10.2113 xyz
    dof rx ry rz
  end
  begin
    id 25
    name LeftToes
    direction -0.18506 0.293668 0.937823
    length 4.75197
    axis 71.2267 -7.89606 10.2113 xyz
    dof rx ry rz
  end
:hierarchy
  begin
    root RightUpLegDummy SpineDummy LeftUpLegDummy
    RightUpLegDummy RightUpLeg
    RightUpLeg RightLeg
    RightLeg RightFoot
    RightFoot RightToes
    SpineDummy Spine
    Spine Spine1
    Spine1 HEadDummy LeftShoulder1Dummy RightShoulderDummy
    HEadDummy HEad
    LeftShoulder1Dummy LeftShoulder1
    LeftShoulder1 LeftArm
    LeftArm LeftForeArm
    LeftForeArm LeftHand
    RightShoulderDummy RightShoulder
    RightShoulder RightArm
    RightArm RightForeArm
    RightForeArm RightHand
    LeftUpLegDummy LeftUpLeg
    LeftUpLeg LeftLeg
    LeftLeg LeftFoot
    LeftFoot LeftToes
  end

:SAMPLES-PER-SECOND 30
:FULLY-SPECIFIED
:DEGREES
333
root  -2.3025 28.8372 20.6655 -155.614 -14.6158 174.634
RightUpLeg  -61.7417 14.3937 18.1303
RightLeg  -51.026 -36.5394 17.2836
RightFoot  16.0806 11.6894 -26.7589
RightToes  -1.27222e-014 -6.36111e-015 6.36111e-015
Spine  17.8803 -9.91178 11.5296
Spine1  -8.26573 -8.41838 30.9161
HEad  -29.806 -23.5803 -19.528
LeftShoulder1  6.36111e-015 -1.33558e-015 6.49777e-015
LeftArm  117.24 -69.9892 -132.559
LeftForeArm  -99.6406 -37.0827 125.022
LeftHand  12.7312 17.2796 21.6537
RightShoulder  -4.77083e-015 -6.36111e-015 -3.18055e-015
RightArm  28.1003 23.4556 -29.1136
RightForeArm  9.84468 4.52453 12.6471
RightHand  11.63 -11.0428 -39.0682
LeftUpLeg  -14.9076 44.0877 -15.2159
LeftLeg  43.9785 5.81528 13.1472
LeftFoot  -36.2099 0.081194 -2.06638
LeftToes  1.27222e-014 -5.20697e-012 1.80337e-011
334
root  -2.10298 28.9454 20.5053 -156.373 -16.6315 175.6
RightUpLeg  -60.5699 13.5529 19.1349
RightLeg  -51.9798 -37.0644 18.2525
RightFoot  15.8424 11.2525 -26.0178
RightToes  -1.27222e-014 -6.36111e-015 6.36111e-015
Spine  16.3246 -10.5689 10.1965
Spine1  -5.6028 -8.86275 31.2351
HEad  -30.1489 -23.2267 -16.7355
LeftShoulder1  6.36111e-015 -1.33558e-015 6.49777e-015
LeftArm  108.815 -70.5363 -124.83
LeftForeArm  -99.615 -39.3698 124.389
LeftHand  13.0999 17.2249 22.9628
RightShoulder  -4.77083e-015 -6.36111e-015 -3.18055e-015
RightArm  23.2908 22.7987 -30.1433
RightForeArm  10.619 3.0305 14.0188
RightHand  7.14917 -7.78215 -27.674
LeftUpLeg  -12.463 42.5155 -12.5064
LeftLeg  44.5888 4.38952 11.6386
LeftFoot  -36.0521 0.0838015 -2.05613
LeftToes  1.27222e-014 -5.20697e-012 1.80337e-011
335
root  -1.93936 29.5221 20.3651 -157.303 -18.2435 176.012
RightUpLeg  -57.9947 12.5525 19.4465
RightLeg  -55.4487 -36.5897 20.1377
RightFoot  16.3307 11.8103 -26.9542
RightToes  -1.27222e-014 -6.36111e-015 6.36111e-015
Spine  15.4069 -10.9908 9.11856
Spine1  -5.65692 -9.70442 29.7787
HEad  -30.3421 -24.7753 -14.7787
LeftShoulder1  6.36111e-015 -1.33558e-015 6.49777e-015
LeftArm  98.0591 -69.2695 -115.866
LeftForeArm  -98.8273 -45.199 120.605
LeftHand  13.9712 17.6444 24.8716
RightShoulder  -4.77083e-015 -6.36111e-015 -3.18055e-015
RightArm  21.268 20.8216 -30.6435
RightForeArm  8.52599 -0.626495 13.3208
RightHand  0.828439 2.91796 -12.6176
LeftUpLeg  -9.46331 41.3574 -10.2517
LeftLeg  42.5623 4.83128 11.3716
LeftFoot  -34.2672 0.122786 -0.972104
LeftToes  1.27222e-014 -5.20697e-012 1.80337e-011
336
root  -1.75572 30.5417 20.1749 -158.051 -20.333 175.532
RightUpLeg  -54.2682 11.9705 18.2081
RightLeg  -61.3186 -35.4491 23.2968
RightFoot  18.3943 11.9611 -27.1076
RightToes  -1.27222e-014 -6.36111e-015 6.36111e-015
Spine  14.9416 -11.2862 8.4812
Spine1  -7.67707 -10.8502 27.9764
HEad  -30.6639 -26.6977 -13.997
LeftShoulder1  6.36111e-015 -1.33558e-015 6.49777e-015
LeftArm  86.0988 -65.8747 -105.294
LeftForeArm  -95.7048 -52.9906 114.097
LeftHand  13.1243 17.3086 22.8711
RightShoulder  -4.77083e-015 -6.36111e-015 -3.18055e-015
RightArm  27.9954 19.9132 -26.415
RightForeArm  -5.41224 -11.4177 5.30367
RightHand  -2.38089 13.5648 -2.0814
LeftUpLeg  -5.23706 41.3404 -6.93793
LeftLeg  39.4327 2.61738 7.87058
LeftFoot  -30.2337 0.0957918 1.07803
LeftToes  1.27222e-014 -5.20697e-012 1.80337e-011
337
root  -1.56166 31.8835 19.8439 -158.426 -23.7195 173.659
RightUpLeg  -49.7811 12.4965 14.626
RightLeg  -68.7435 -34.1501 28.0115
RightFoot  21.3285 10.7515 -25.1006
RightToes  -1.27222e-014 -6.36111e-015 6.36111e-015
Spine  10.9185 -11.9186 8.72881
Spine1  -3.96189 -12.0653 25.6591
HEad  -33.2879 -28.0636 -11.9239
LeftShoulder1  6.36111e-015 -1.33558e-015 6.49777e-015
LeftArm  78.1457 -63.8137 -96.6312
LeftForeArm  -89.1711 -61.0645 105.625
LeftHand  10.7292 15.7883 17.8343
RightShoulder  -4.77083e-015 -6.36111e-015 -3.18055e-015
RightArm  37.2766 18.9515 -20.2353
RightForeArm  -25.2396 -19.0589 -5.34965
RightHand  -3.18729 18.7745 3.87173
LeftUpLeg  0.916356 41.0182 -1.00463
LeftLeg  38.1372 -9.85751 -4.94975
LeftFoot  -21.8594 0.22948 -1.4085
LeftToes  1.27222e-014 -5.20697e-012 1.80337e-011
338
root  -1.34483 33.0629 19.3324 -158.717 -28.0476 171.245
RightUpLeg  -45.5576 15.2917 9.82363
RightLeg  -73.7741 -33.3768 31.8644
RightFoot  24.8045 8.88014 -22.3722
RightToes  -1.27222e-014 -6.36111e-015 6.36111e-015
Spine  3.89857 -12.3468 7.32252
Spine1  0.199473 -13.1584 26.544
HEad  -31.4895 -28.0789 -10.4357
LeftShoulder1  6.36111e-015 -1.33558e-015 6.49777e-015
LeftArm  70.2565 -60.0206 -86.792
LeftForeArm  -78.6982 -66.8219 93.5597
LeftHand  8.339 13.8574 12.7135
RightShoulder  -4.77083e-015 -6.36111e-015 -3.18055e-015
RightArm  37.1521 14.4306 -19.8989
RightForeArm  -37.3725 -2.76011 -15.9246
RightHand  -3.11635 18.9828 6.20464
LeftUpLeg  7.38983 38.6862 6.57651
LeftLeg  40.8173 -24.8109 -19.7005
LeftFoot  -12.4042 2.90269 -15.6211
LeftToes  1.27222e-014 -5.20697e-012 1.80337e-011
339
root  -1.23596 33.8323 18.703 -159.475 -32.9181 169.235
RightUpLeg  -42.249 19.7335 4.93385
RightLeg  -71.1509 -32.926 28.8605
RightFoot  29.1431 6.82663 -19.827
RightToes  -1.27222e-014 -6.36111e-015 6.36111e-015
Spine  2.14487 -13.1005 4.1554
Spine1  -6.68095 -14.5881 30.8962
HEad  -21.5562 -28.1901 -11.4003
LeftShoulder1  6.36111e-015 -1.33558e-015 6.49777e-015
LeftArm  66.1904 -50.44 -80.1187
LeftForeArm  -66.571 -68.9956 79.3072
LeftHand  6.5312 11.8524 9.21227
RightShoulder  -4.77083e-015 -6.36111e-015 -3.18055e-015
RightArm  44.8051 12.9066 -8.54979
RightForeArm  -51.0182 12.823 -37.9715
RightHand  -2.65308 16.0012 11.5847
LeftUpLeg  13.0286 34.9083 12.6951
LeftLeg  41.0539 -27.384 -21.9672
LeftFoot  -10.9167 5.52239 -27.6269
LeftToes  1.27222e-014 -5.20697e-012 1.80337e-011
340
root  -1.262 34.3213 18.0048 -161.067 -38.5103 167.718
RightUpLeg  -38.8307 24.1325 0.495145
RightLeg  -61.7073 -30.5093 18.8595
RightFoot  31.3342 5.63856 -18.5098
RightToes  -1.27222e-014 -6.36111e-015 6.36111e-015
Spine  -2.05206 -13.167 3.37653
Spine1  -7.39985 -15.2116 31.9955
HEad  -15.1595 -30.5292 -10.5791
LeftShoulder1  6.36111e-015 -1.33558e-015 6.49777e-015
LeftArm  67.4062 -44.2015 -78.8961
LeftForeArm  -51.9919 -70.1978 63.3857
LeftHand  5.50025 10.1837 8.05946
RightShoulder  -4.77083e-015 -6.36111e-015 -3.18055e-015
RightArm  48.5707 12.0666 4.7994
RightForeArm  -63.83 18.3189 -65.5706
RightHand  -2.52345 15.0337 19.5595
LeftUpLeg  17.4607 30.1223 16.5339
LeftLeg  37.3292 -15.857 -10.2997
LeftFoot  -13.6651 4.61782 -26.4081
LeftToes  1.27222e-014 -5.20697e-012 1.80337e-011
341
root  -1.2795 34.5703 17.2701 -163.324 -45.028 166.519
RightUpLeg  -34.1608 27.2001 -2.63428
RightLeg  -53.4813 -28.5837 12.3337
RightFoot  27.5693 6.56092 -19.3289
RightToes  -1.27222e-014 -6.36111e-015 6.36111e-015
Spine  -5.67945 -11.8582 3.9648
Spine1  -6.78139 -14.7967 30.4805
HEad  -11.2593 -36.5289 -8.32291
LeftShoulder1  6.36111e-015 -1.33558e-015 6.49777e-015
LeftArm  73.3309 -41.2704 -82.829
LeftForeArm  -40.2058 -70.7021 51.4512
LeftHand  5.17409 9.64812 7.66768
RightShoulder  -4.77083e-015 -6.36111e-015 -3.18055e-015
RightArm  49.3735 9.43525 18.7816
RightForeArm  -68.8032 17.4244 -83.0638
RightHand  -2.5431 13.7668 25.1167
LeftUpLeg  19.653 23.8319 18.4537
LeftLeg  33.4174 -0.776005 3.46255
LeftFoot  -12.3581 3.41444 -18.3526
LeftToes  1.27222e-014 -5.20697e-012 1.80337e-011
342
root  -1.27909 34.6687 16.4057 -164.095 -52.2963 163.716
RightUpLeg  -28.3523 28.0155 -5.67808
RightLeg  -50.2426 -31.1642 12.8613
RightFoot  21.5309 8.15665 -21.1282
RightToes  -1.27222e-014 -6.36111e-015 6.36111e-015
Spine  -8.64432 -10.1951 3.76107
Spine1  -5.48409 -13.6813 27.9041
HEad  -9.50557 -45.7093 -5.06185
LeftShoulder1  6.36111e-015 -1.33558e-015 6.49777e-015
LeftArm  82.1227 -42.2273 -89.5536
LeftForeArm  -35.1607 -70.8742 46.5969
LeftHand  4.93648 9.48628 6.8072
RightShoulder  -4.77083e-015 -6.36111e-015 -3.18055e-015
RightArm  45.917 6.62241 31.6549
RightForeArm  -66.0837 20.0162 -88.0329
RightHand  -2.79866 10.9802 29.4638
LeftUpLeg  20.5942 16.0614 18.247
LeftLeg  27.2698 3.36924 5.58309
LeftFoot  -9.048 3.15188 -14.611
LeftToes  1.27222e-014 -5.20697e-012 1.80337e-011
343
root  -1.37755 34.551 15.5084 -161.565 -59.8308 158.077
RightUpLeg  -22.3321 27.7093 -9.99281
RightLeg  -48.7881 -32.5473 13.1643
RightFoot  19.1208 8.23058 -21.0827
RightToes  -1.27222e-014 -6.36111e-015 6.36111e-015
Spine  -10.8801 -8.27239 2.43034
Spine1  -4.01047 -11.787 26.4953
HEad  -9.87323 -56.5356 -2.09462
LeftShoulder1  6.36111e-015 -1.33558e-015 6.49777e-015
LeftArm  91.3817 -46.9363 -97.3826
LeftForeArm  -36.8302 -70.7892 48.1575
LeftHand  3.9873 7.92551 5.42121
RightShoulder  -4.77083e-015 -6.36111e-015 -3.18055e-015
RightArm  40.5949 6.56787 40.6867
RightForeArm  -57.8429 27.9056 -85.5364
RightHand  -2.88533 10.6966 31.4193
LeftUpLeg  21.3421 9.0501 16.1226
LeftLeg  19.2043 -3.40721 0.523336
LeftFoot  -7.16558 4.17318 -17.9417
LeftToes  1.27222e-014 -5.20697e-012 1.80337e-011
344
root  -1.70307 34.1907 14.8095 -156.185 -67.305 149.87
RightUpLeg  -14.791 28.1413 -14.3929
RightLeg  -45.4642 -26.2337 7.13649
RightFoot  17.419 5.08886 -15.8166
RightToes  -1.27222e-014 -6.36111e-015 6.36111e-015
Spine  -11.9645 -5.41102 2.75454
Spine1  -3.27526 -9.66794 24.9247
HEad  -12.8631 -67.1952 0.949369
LeftShoulder1  6.36111e-015 -1.33558e-015 6.49777e-015
LeftArm  100.177 -53.6522 -105.651
LeftForeArm  -42.531 -70.5061 53.6206
LeftHand  2.87103 5.89998 3.93982
RightShoulder  -4.77083e-015 -6.36111e-015 -3.18055e-015
RightArm  36.771 9.20707 45.0008
RightForeArm  -45.1321 37.2872 -75.1827
RightHand  -2.64891 12.0675 26.5305
LeftUpLeg  22.2289 4.46642 13.8669
LeftLeg  14.3436 -11.026 -2.69692
LeftFoot  -6.64261 5.69914 -23.9312
LeftToes  1.27222e-014 -5.20697e-012 1.80337e-011
